# xmcd
#
# Track frame offsets: 
#        150
#        7815
#        47520
#        74902
#        85815
#        125710
#        144092
#        152017
#        161050
#        180050
#        202525
#
# Disc length: 2987 seconds
#
# Revision: 1
# Processed by: cddbd v1.5.2PL0 Copyright (c) Steve Scherf et al.
# Submitted via: ExactAudioCopy v0.95b4
#
DISCID=7f0ba90b
DTITLE=Giuseppe Patané, Hungarian Radio and Television Sym Orch and Chorus
DTITLE=Various Artist - Giordano - Fedora Disc 2
DYEAR=1986
DGENRE=Opera
TTITLE0=Act Two - Gretch! I vostri uomini¿
TTITLE1=Silenzio...È lui! È lui!
TTITLE2=Ma chi m'accusa¿
TTITLE3=Act Three - Introduzione - Dice la capinera
TTITLE4=Quanto sei bella!...Chi vedo¿ De Siriex!
TTITLE5=Principessa, non son venuto qui per lei
TTITLE6=La montanina mia...Dio di giustizia
TTITLE7=Di già¿ Muta è mia madre
TTITLE8=Jariskin reco all'Imperatore
TTITLE9=Forse con te li piange
TTITLE10=È vano! È vano!
EXTD=
EXTT0=
EXTT1=
EXTT2=
EXTT3=
EXTT4=
EXTT5=
EXTT6=
EXTT7=
EXTT8=
EXTT9=
EXTT10=
PLAYORDER=
